<svg width="696" height="240" viewBox="0 0 696 240" fill="none" xmlns="http://www.w3.org/2000/svg">
<path d="M21.1646 5.16138H108.165C125.5 5.16138 140.321 8.44094 152.628 15.0001C165.041 21.5592 174.404 30.6989 180.718 42.4194C187.032 54.0323 190.188 67.4194 190.188 82.5807C190.188 97.6344 186.978 110.968 180.557 122.581C174.137 134.086 164.72 143.172 152.307 149.839C140 156.398 125.072 159.678 107.522 159.678H49.7365V125H101.904C112.177 125 120.685 123.226 127.426 119.678C134.275 116.021 139.305 111.021 142.515 104.678C145.832 98.3335 147.491 90.9678 147.491 82.5807C147.491 73.9787 145.832 66.5593 142.515 60.3227C139.305 53.9787 134.275 49.086 127.426 45.6452C120.578 42.0969 112.017 40.3227 101.744 40.3227H62.8988V238.71H21.1646V5.16138Z" fill="white"/>
<path d="M261.457 77.4194C278.478 77.4194 292.277 60.0884 292.277 38.7097C292.277 17.3309 278.478 0 261.457 0C244.436 0 230.638 17.3309 230.638 38.7097C230.638 60.0884 244.436 77.4194 261.457 77.4194Z" fill="white"/>
<path d="M230.639 126.452C230.639 115.049 239.837 105.806 251.185 105.806H271.73C283.08 105.806 292.277 115.049 292.277 126.452V216.774C292.277 228.176 283.08 237.419 271.73 237.419H251.185C239.837 237.419 230.639 228.176 230.639 216.774V126.452Z" fill="white"/>
<path d="M344.353 218.053C344.528 229.454 353.935 238.737 365.082 236.592C388.756 232.037 410.656 220.272 427.668 202.649C449.483 180.05 461.469 149.668 460.991 118.188C460.511 86.708 447.608 56.7082 425.117 34.7882C407.579 17.6956 385.332 6.60766 361.53 2.78085C350.324 0.979428 341.202 10.5464 341.374 21.947L341.531 32.2231C341.703 43.6236 351.246 52.4194 362.113 55.7043C372.262 58.7727 381.637 64.2522 389.385 71.8042C402.106 84.2021 409.405 101.17 409.677 118.975C409.947 136.78 403.166 153.964 390.828 166.747C383.314 174.533 374.109 180.297 364.057 183.675C353.296 187.292 344.024 196.377 344.196 207.777L344.353 218.053Z" fill="white"/>
<path d="M505.008 5.16138H546.743V112.742H549.794L640.484 5.16138H691.85L601.639 110L692.653 238.71H642.089L572.587 138.387L546.743 169.194V238.71H505.008V5.16138Z" fill="white"/>
</svg>
