<svg width="174" height="60" viewBox="0 0 174 60" fill="none" xmlns="http://www.w3.org/2000/svg">
<path d="M5.29102 1.29053H27.041C31.375 1.29053 35.0803 2.11042 38.1568 3.7502C41.2601 5.38999 43.601 7.67491 45.1794 10.605C46.7578 13.5083 47.547 16.855 47.547 20.6454C47.547 24.4088 46.7444 27.7421 45.1393 30.6454C43.5341 33.5217 41.1799 35.7932 38.0765 37.4599C35 39.0997 31.268 39.9196 26.8805 39.9196H12.434V31.2502H25.476C28.0442 31.2502 30.1711 30.8067 31.8565 29.9196C33.5687 29.0056 34.8261 27.7556 35.6286 26.1696C36.458 24.5836 36.8726 22.7421 36.8726 20.6454C36.8726 18.4948 36.458 16.64 35.6286 15.0808C34.8261 13.4948 33.5687 12.2717 31.8565 11.4115C30.1444 10.5244 28.0041 10.0808 25.4358 10.0808H15.7246V59.6776H5.29102V1.29053Z" fill="#8C8A8F"/>
<path d="M65.3642 19.3548C69.6195 19.3548 73.069 15.0221 73.069 9.67742C73.069 4.33273 69.6195 0 65.3642 0C61.109 0 57.6594 4.33273 57.6594 9.67742C57.6594 15.0221 61.109 19.3548 65.3642 19.3548Z" fill="#8C8A8F"/>
<path d="M57.6597 31.613C57.6597 28.7624 59.9594 26.4517 62.7962 26.4517H67.9326C70.7699 26.4517 73.0691 28.7624 73.0691 31.613V54.1936C73.0691 57.0441 70.7699 59.3549 67.9326 59.3549H62.7962C59.9594 59.3549 57.6597 57.0441 57.6597 54.1936V31.613Z" fill="#8C8A8F"/>
<path d="M86.0882 54.5135C86.1318 57.3637 88.4837 59.6843 91.2703 59.1483C97.1889 58.0095 102.664 55.0682 106.917 50.6625C112.371 45.0126 115.367 37.4172 115.248 29.5472C115.128 21.6772 111.902 14.1772 106.279 8.69724C101.895 4.42407 96.333 1.6521 90.3823 0.695396C87.581 0.24504 85.3004 2.63678 85.3434 5.48694L85.3825 8.05595C85.4256 10.9061 87.8115 13.105 90.5281 13.9263C93.0655 14.6934 95.409 16.0632 97.3462 17.9512C100.526 21.0507 102.351 25.2927 102.419 29.744C102.487 34.1953 100.791 38.4912 97.707 41.6868C95.8283 43.6334 93.5272 45.0745 91.0141 45.919C88.3238 46.8232 86.006 49.0943 86.049 51.9445L86.0882 54.5135Z" fill="#8C8A8F"/>
<path d="M126.252 1.29053H136.686V28.1857H137.448L160.121 1.29053H172.962L150.41 27.5002L173.163 59.6776H160.522L143.147 34.597L136.686 42.2986V59.6776H126.252V1.29053Z" fill="#8C8A8F"/>
</svg>
