<svg width="112" height="40" viewBox="0 0 112 40" fill="none" xmlns="http://www.w3.org/2000/svg">
<path d="M6.10352e-05 40V1.74579H14.3718C23.1428 1.74579 27.8453 7.08229 27.8453 14.4269C27.8453 21.771 23.0899 27.0551 14.2661 27.0551H6.86893V40H6.10352e-05ZM6.86893 21.4014H13.315C18.4931 21.4014 20.818 18.4951 20.818 14.4269C20.818 10.3053 18.4931 7.50488 13.315 7.50488H6.86893V21.4014Z" fill="#141414"/>
<path d="M45.4191 19.4969C45.4191 16.666 43.1243 14.3712 40.2934 14.3712C37.4625 14.3712 35.1676 16.666 35.1676 19.4969V34.8742C35.1676 37.7051 37.4625 40 40.2934 40C43.1243 40 45.4191 37.7051 45.4191 34.8742V19.4969Z" fill="#9650FA"/>
<path d="M45.419 5.25858C45.419 2.4277 43.1241 0.132812 40.2933 0.132812C37.4624 0.132812 35.1675 2.4277 35.1675 5.25858V6.96717C35.1675 9.79806 37.4624 12.0929 40.2933 12.0929C43.1241 12.0929 45.419 9.79806 45.419 6.96717V5.25858Z" fill="#9650FA"/>
<path d="M52.7419 35.992C52.7419 38.4142 54.7261 40.4235 57.0959 39.9229C60.9084 39.117 64.4377 37.2632 67.2398 34.5391C71.0847 30.8007 73.245 25.7308 73.245 20.4438C73.245 15.1569 71.0847 10.0869 67.2398 6.34851C64.4377 3.62445 60.9084 1.77063 57.0959 0.964744C54.7261 0.464127 52.7419 2.47343 52.7419 4.89564C52.7419 7.31785 54.7711 9.20527 57.027 10.0875C58.4491 10.6439 59.7556 11.4766 60.8605 12.5507C63.0139 14.6437 64.2236 17.4834 64.2236 20.4438C64.2236 23.4042 63.0139 26.2439 60.8605 28.3369C59.7556 29.4111 58.4491 30.2437 57.027 30.8001C54.7711 31.6823 52.7419 33.5698 52.7419 35.992Z" fill="#9650FA"/>
<path d="M80.5674 40V1.34314H87.5089V19.1233H88.0425L103.153 1.34314H111.643L96.6925 18.6961L111.803 40H103.42L91.8333 23.3948L87.5089 28.467V40H80.5674Z" fill="#141414"/>
</svg>
