<svg width="116" height="40" viewBox="0 0 116 40" fill="none" xmlns="http://www.w3.org/2000/svg">
<path d="M3.52734 0.860107H18.0273C20.9166 0.860107 23.3868 1.4067 25.4379 2.49989C27.5068 3.59308 29.0673 5.11637 30.1196 7.06978C31.1719 9.00527 31.698 11.2365 31.698 13.7633C31.698 16.2723 31.1629 18.4945 30.0928 20.43C29.0227 22.3475 27.4533 23.8619 25.3843 24.973C23.3333 26.0662 20.8453 26.6128 17.9203 26.6128H8.28933V20.8332H16.984C18.6962 20.8332 20.1141 20.5375 21.2377 19.9461C22.3791 19.3368 23.2174 18.5035 23.7524 17.4461C24.3053 16.3888 24.5818 15.1612 24.5818 13.7633C24.5818 12.3297 24.3053 11.0931 23.7524 10.0537C23.2174 8.99632 22.3791 8.18088 21.2377 7.60742C20.0962 7.01602 18.6694 6.72032 16.9572 6.72032H10.4831V39.7848H3.52734V0.860107Z" fill="white"/>
<path d="M43.5762 12.9032C46.4131 12.9032 48.7128 10.0147 48.7128 6.45161C48.7128 2.88849 46.4131 0 43.5762 0C40.7394 0 38.4397 2.88849 38.4397 6.45161C38.4397 10.0147 40.7394 12.9032 43.5762 12.9032Z" fill="#C7B4F8"/>
<path d="M38.4397 21.0754C38.4397 19.175 39.9728 17.6345 41.8641 17.6345H45.2883C47.1798 17.6345 48.7127 19.175 48.7127 21.0754V36.1291C48.7127 38.0295 47.1798 39.57 45.2883 39.57H41.8641C39.9728 39.57 38.4397 38.0295 38.4397 36.1291V21.0754Z" fill="#C7B4F8"/>
<path d="M57.3922 36.3422C57.4213 38.2424 58.9892 39.7895 60.8469 39.4321C64.7927 38.6729 68.4426 36.7121 71.278 33.7749C74.9138 30.0084 76.9114 24.9447 76.8318 19.6981C76.7518 14.4514 74.6013 9.45141 70.8529 5.79808C67.9298 2.9493 64.2221 1.10132 60.255 0.463516C58.3874 0.163279 56.867 1.75777 56.8957 3.65788L56.9218 5.37055C56.9505 7.27064 58.5411 8.73662 60.3521 9.2841C62.0437 9.7955 63.6061 10.7087 64.8975 11.9674C67.0176 14.0337 68.2341 16.8617 68.2795 19.8293C68.3244 22.7968 67.1944 25.6607 65.1381 27.7912C63.8856 29.0888 62.3515 30.0496 60.6762 30.6126C58.8826 31.2154 57.3374 32.7295 57.3661 34.6296L57.3922 36.3422Z" fill="#C7B4F8"/>
<path d="M84.168 0.860107H91.1237V18.7902H91.6322L106.747 0.860107H115.308L100.273 18.3332L115.442 39.7848H107.015L95.4311 23.0644L91.1237 28.1988V39.7848H84.168V0.860107Z" fill="white"/>
</svg>
