<svg width="562" height="201" viewBox="0 0 562 201" fill="none" xmlns="http://www.w3.org/2000/svg">
<path d="M0.611328 200.333V8.4248H72.7096C116.711 8.4248 140.302 35.1962 140.302 72.0419C140.302 108.885 116.446 135.393 72.1793 135.393H35.0702V200.333H0.611328ZM35.0702 107.03H67.4082C93.3847 107.03 105.048 92.4505 105.048 72.0419C105.048 51.3648 93.3847 37.3162 67.4082 37.3162H35.0702V107.03Z" fill="#141414"/>
<path d="M228.464 97.4765C228.464 83.2749 216.951 71.7622 202.749 71.7622C188.548 71.7622 177.035 83.2749 177.035 97.4765V174.619C177.035 188.821 188.548 200.334 202.749 200.334C216.951 200.334 228.464 188.821 228.464 174.619V97.4765Z" fill="#9650FA"/>
<path d="M228.464 26.0478C228.464 11.8462 216.951 0.333496 202.749 0.333496C188.548 0.333496 177.035 11.8462 177.035 26.0478V34.6192C177.035 48.8208 188.548 60.3335 202.749 60.3335C216.951 60.3335 228.464 48.8208 228.464 34.6192V26.0478Z" fill="#9650FA"/>
<path d="M265.199 180.227C265.199 192.378 275.154 202.458 287.042 199.947C306.168 195.904 323.873 186.604 337.931 172.938C357.219 154.184 368.056 128.75 368.056 102.227C368.056 75.7041 357.219 50.2698 337.931 31.5155C323.873 17.8498 306.168 8.54981 287.042 4.50695C275.154 1.99552 265.199 12.0755 265.199 24.2269C265.199 36.3784 275.379 45.8469 286.696 50.2726C293.831 53.0641 300.385 57.2412 305.928 62.6298C316.731 73.1298 322.799 87.3755 322.799 102.227C322.799 117.078 316.731 131.324 305.928 141.824C300.385 147.213 293.831 151.39 286.696 154.181C275.379 158.607 265.199 168.075 265.199 180.227Z" fill="#9650FA"/>
<path d="M404.791 200.333V6.40479H439.614V95.6019H442.291L518.097 6.40479H560.685L485.685 93.459L561.488 200.333H519.434L461.308 117.03L439.614 142.476V200.333H404.791Z" fill="#141414"/>
</svg>
